<?xml version="1.0" encoding="UTF-8" standalone="no"?>
<!-- Created with Inkscape (http://www.inkscape.org/) -->

<svg
   version="1.1"
   id="svg840"
   xml:space="preserve"
   width="666.66669"
   height="666.66669"
   viewBox="0 0 666.66669 666.66669"
   sodipodi:docname="logo.svg"
   inkscape:version="1.1.2 (0a00cf5339, 2022-02-04)"
   inkscape:export-filename="/home/carlosbarreto/Pessoal/projects/arktech/app/src/assets/logo.png"
   inkscape:export-xdpi="96"
   inkscape:export-ydpi="96"
   xmlns:inkscape="http://www.inkscape.org/namespaces/inkscape"
   xmlns:sodipodi="http://sodipodi.sourceforge.net/DTD/sodipodi-0.dtd"
   xmlns="http://www.w3.org/2000/svg"
   xmlns:svg="http://www.w3.org/2000/svg"><sodipodi:namedview
     id="namedview859"
     pagecolor="#ffffff"
     bordercolor="#666666"
     borderopacity="1.0"
     inkscape:pageshadow="2"
     inkscape:pageopacity="0.0"
     inkscape:pagecheckerboard="0"
     showgrid="false"
     inkscape:zoom="1.1535"
     inkscape:cx="333.33334"
     inkscape:cy="333.33334"
     inkscape:window-width="1920"
     inkscape:window-height="978"
     inkscape:window-x="0"
     inkscape:window-y="27"
     inkscape:window-maximized="1"
     inkscape:current-layer="g926" /><defs
     id="defs844"><clipPath
       clipPathUnits="userSpaceOnUse"
       id="clipPath868"><path
         d="M 0,500 H 500 V 0 H 0 Z"
         id="path866" /></clipPath><linearGradient
       x1="0"
       y1="0"
       x2="1"
       y2="0"
       gradientUnits="userSpaceOnUse"
       gradientTransform="matrix(75.26973,0,0,-75.26973,131.05116,370.99356)"
       spreadMethod="pad"
       id="linearGradient890"><stop
         style="stop-opacity:1;stop-color:#0045e7"
         offset="0"
         id="stop886" /><stop
         style="stop-opacity:1;stop-color:#00decf"
         offset="1"
         id="stop888" /></linearGradient><linearGradient
       x1="0"
       y1="0"
       x2="1"
       y2="0"
       gradientUnits="userSpaceOnUse"
       gradientTransform="matrix(31.470819,0,0,-31.470819,132.13501,331.77557)"
       spreadMethod="pad"
       id="linearGradient910"><stop
         style="stop-opacity:1;stop-color:#0045e7"
         offset="0"
         id="stop906" /><stop
         style="stop-opacity:1;stop-color:#00decf"
         offset="1"
         id="stop908" /></linearGradient><linearGradient
       x1="0.22711757"
       y1="0.44999939"
       x2="0.74160779"
       y2="-0.44131935"
       gradientUnits="userSpaceOnUse"
       gradientTransform="matrix(140.31699,0,0,-140.31699,279.23666,175.8678)"
       spreadMethod="pad"
       id="linearGradient942"><stop
         style="stop-opacity:1;stop-color:#f97316"
         offset="0"
         id="stop938" /><stop
         style="stop-opacity:1;stop-color:#ef4444"
         offset="1"
         id="stop940" /></linearGradient><clipPath
       clipPathUnits="userSpaceOnUse"
       id="clipPath964"><path
         d="M 0,500 H 500 V 0 H 0 Z"
         id="path962" /></clipPath><linearGradient
       x1="0"
       y1="0"
       x2="1"
       y2="0"
       gradientUnits="userSpaceOnUse"
       gradientTransform="matrix(124.401,0,0,124.401,-94.4476,458.0916)"
       spreadMethod="pad"
       id="linearGradient972"><stop
         style="stop-opacity:1;stop-color:#0045e7"
         offset="0"
         id="stop968" /><stop
         style="stop-opacity:1;stop-color:#00decf"
         offset="1"
         id="stop970" /></linearGradient><clipPath
       clipPathUnits="userSpaceOnUse"
       id="clipPath994"><path
         d="m 286.168,318.625 c -1.673,-0.966 -2.248,-3.107 -1.281,-4.781 v 0 c 0.966,-1.674 3.107,-2.247 4.781,-1.28 v 0 c 0.094,0.054 0.188,0.108 0.282,0.163 v 0 l -3.5,6.062 c -0.094,-0.055 -0.188,-0.109 -0.282,-0.164"
         id="path992" /></clipPath><clipPath
       clipPathUnits="userSpaceOnUse"
       id="clipPath1024"><path
         d="m 348.167,426.011 c -0.548,-0.316 -0.986,-0.772 -1.282,-1.282 v 0 l -0.005,-0.009 -37.925,-65.758 c 0,0 -0.163,-0.283 -0.489,-0.849 v 0 c 1.011,-0.583 1.516,-0.874 1.516,-0.874 v 0 c 0.505,-0.292 1.01,-0.583 1.516,-0.875 v 0 c 0.505,-0.292 1.011,-0.582 1.516,-0.874 v 0 c 0,0 0.505,-0.292 1.515,-0.875 v 0 c 0.327,0.566 0.491,0.85 0.491,0.85 v 0 l 34.898,60.512 c 18.646,-32.293 37.291,-64.588 55.935,-96.882 v 0 h -80.049 c 3.444,1.981 6.887,3.962 10.332,5.943 v 0 h 53.352 0.01 c 0.59,10e-4 1.202,0.153 1.75,0.469 v 0 c 1.674,0.966 2.247,3.106 1.282,4.78 v 0 l -0.006,0.009 c -13.19,22.847 -26.381,45.693 -39.571,68.539 v 0 l -0.005,0.009 c -0.297,0.51 -0.734,0.965 -1.281,1.282 v 0 c -1.674,0.966 -3.814,0.392 -4.781,-1.282 v 0 l -0.005,-0.009 c -7.956,-13.779 -15.911,-27.559 -23.867,-41.339 v 0 l -0.005,-0.008 c -0.293,-0.512 -0.469,-1.118 -0.469,-1.75 v 0 c 0,-1.933 1.566,-3.501 3.5,-3.501 v 0 h 0.01 16.326 0.01 c 1.206,0.004 2.383,0.63 3.031,1.751 v 0 l 0.005,0.009 c 1.498,2.595 2.996,5.19 4.495,7.785 v 0 l 9,-15.589 h -24.053 -0.009 c -0.591,-0.002 -1.203,-0.153 -1.751,-0.469 v 0 l -0.009,-0.004 c -15.359,-8.868 -30.719,-17.736 -46.079,-26.604 v 0 c 0,0 -0.282,-0.164 -0.848,-0.491 v 0 c 0.583,-1.01 0.875,-1.514 0.875,-1.514 v 0 c 0.291,-0.506 0.583,-1.011 0.875,-1.516 v 0 c 0.291,-0.506 0.583,-1.011 0.875,-1.516 v 0 c 0,0 0.291,-0.506 0.875,-1.515 v 0 c 0.566,0.326 0.848,0.489 0.848,0.489 v 0 c 15.092,8.713 30.185,17.427 45.276,26.141 v 0 h 29.177 0.011 c 1.932,0 3.5,1.567 3.5,3.499 v 0 c 0,0.633 -0.177,1.238 -0.47,1.75 v 0 l -0.005,0.009 c -5.017,8.691 -10.035,17.381 -15.052,26.072 v 0 l -0.005,0.008 c -0.967,1.675 -3.107,2.248 -4.781,1.281 v 0 c -0.548,-0.316 -0.985,-0.771 -1.281,-1.281 v 0 l -0.005,-0.008 c -2.172,-3.762 -4.344,-7.524 -6.515,-11.286 v 0 h -8.264 c 5.938,10.286 11.876,20.571 17.815,30.856 v 0 c 11.173,-19.352 22.345,-38.704 33.518,-58.056 v 0 h -48.224 -0.01 c -0.63,0 -1.234,-0.176 -1.745,-0.466 v 0 l -0.009,-0.006 c -7.495,-4.311 -14.99,-8.622 -22.484,-12.933 v 0 l -0.009,-0.004 c -1.675,-0.964 -2.253,-3.104 -1.289,-4.779 v 0 c 0.645,-1.123 1.825,-1.752 3.035,-1.755 v 0 h 0.009 99.198 0.009 c 1.933,0 3.5,1.567 3.5,3.5 v 0 c 0,0.632 -0.176,1.238 -0.468,1.749 v 0 l -0.006,0.009 -61.989,107.369 -0.005,0.008 c -0.648,1.123 -1.825,1.751 -3.034,1.751 v 0 c -0.594,0 -1.196,-0.152 -1.747,-0.47"
         id="path1022" /></clipPath><clipPath
       clipPathUnits="userSpaceOnUse"
       id="clipPath1622"><path
         d="m 308.466,358.113 c -0.966,-1.674 -0.392,-3.815 1.283,-4.78 v 0 c 1.674,-0.966 3.815,-0.392 4.78,1.282 v 0 l 0.163,0.284 -6.063,3.497 c -0.054,-0.094 -0.109,-0.189 -0.163,-0.283"
         id="path1620" /></clipPath></defs><g
     id="g846"
     transform="matrix(1.3333333,0,0,-1.3333333,0,666.66667)"><g
       id="g926"
       transform="matrix(3.093921,0,0,3.093921,-833.02628,-247.22)"><text
         transform="scale(1,-1)"
         style="font-variant:normal;font-weight:900;font-stretch:normal;font-size:36.7812px;font-family:'Montserrat Black';-inkscape-font-specification:Montserrat-Black;writing-mode:lr-tb;fill:#f97316;fill-opacity:1;fill-rule:nonzero;stroke:none;stroke-width:1.41729"
         id="text916"
         x="278.35202"
         y="-83.010292"><tspan
           id="tspan914"
           style="stroke-width:1.41729;fill:#f97316;fill-opacity:1"
           x="278.35202"
           y="-83.010292">ark</tspan></text><text
         transform="scale(1,-1)"
         style="font-variant:normal;font-weight:300;font-stretch:normal;font-size:36.7812px;font-family:'Montserrat Light';-inkscape-font-specification:Montserrat-Light;writing-mode:lr-tb;fill:#f97316;fill-opacity:1;fill-rule:nonzero;stroke:none;stroke-width:1.41729"
         id="text920"
         x="344.26813"
         y="-83.010292"><tspan
           id="tspan918"
           style="stroke-width:1.41729;fill:#f97316;fill-opacity:1"
           x="344.26813"
           y="-83.010292">tech</tspan></text><path
         d="m 334.38136,230.25954 -52.79604,-91.44672 c -6.67332,-11.55744 1.66803,-26.00395 15.01467,-26.00395 v 0 h 0.0482 l 39.91759,69.13762 c 3.4043,5.89695 10.94457,7.9167 16.84269,4.51241 v 0 c 5.89812,-3.4043 7.91788,-10.94458 4.51358,-16.8427 v 0 l -32.79841,-56.80733 h 23.44309 l 20.38815,35.31461 c 3.40547,5.89694 10.94692,7.91787 16.84504,4.51357 v 0 c 5.89577,-3.40665 7.9167,-10.94575 4.51241,-16.84387 v 0 l -13.27018,-22.98431 h 25.14758 c 13.34664,0 21.688,14.44651 15.01468,26.00395 v 0 l -52.7937,91.44672 c -3.33724,5.77814 -9.17655,8.66838 -15.01467,8.66838 v 0 c -5.8393,0 -11.67861,-2.89024 -15.01468,-8.66838"
         style="fill:url(#linearGradient942);stroke:none;stroke-width:1.17633"
         id="path944" /></g></g></svg>
