<?xml version="1.0" encoding="UTF-8" standalone="no"?>
<!-- Created with Inkscape (http://www.inkscape.org/) -->

<svg
   version="1.1"
   id="svg840"
   xml:space="preserve"
   width="3300"
   height="560"
   viewBox="0 0 3300 560"
   sodipodi:docname="logo-horizontal.svg"
   inkscape:version="1.1.2 (0a00cf5339, 2022-02-04)"
   inkscape:export-filename="/home/carlosbarreto/Pessoal/projects/arktech/app/src/assets/logo.png"
   inkscape:export-xdpi="96"
   inkscape:export-ydpi="96"
   xmlns:inkscape="http://www.inkscape.org/namespaces/inkscape"
   xmlns:sodipodi="http://sodipodi.sourceforge.net/DTD/sodipodi-0.dtd"
   xmlns="http://www.w3.org/2000/svg"
   xmlns:svg="http://www.w3.org/2000/svg"><sodipodi:namedview
     id="namedview859"
     pagecolor="#ffffff"
     bordercolor="#666666"
     borderopacity="1.0"
     inkscape:pageshadow="2"
     inkscape:pageopacity="0.0"
     inkscape:pagecheckerboard="0"
     showgrid="false"
     inkscape:zoom="0.1441875"
     inkscape:cx="1806.6753"
     inkscape:cy="1071.5215"
     inkscape:window-width="1920"
     inkscape:window-height="978"
     inkscape:window-x="0"
     inkscape:window-y="27"
     inkscape:window-maximized="1"
     inkscape:current-layer="g1061"
     showguides="true"
     inkscape:guide-bbox="true"
     height="530px" /><defs
     id="defs844"><clipPath
       clipPathUnits="userSpaceOnUse"
       id="clipPath868"><path
         d="M 0,500 H 500 V 0 H 0 Z"
         id="path866" /></clipPath><linearGradient
       x1="0"
       y1="0"
       x2="1"
       y2="0"
       gradientUnits="userSpaceOnUse"
       gradientTransform="matrix(75.26973,0,0,-75.26973,131.05116,370.99356)"
       spreadMethod="pad"
       id="linearGradient890"><stop
         style="stop-opacity:1;stop-color:#0045e7"
         offset="0"
         id="stop886" /><stop
         style="stop-opacity:1;stop-color:#00decf"
         offset="1"
         id="stop888" /></linearGradient><linearGradient
       x1="0"
       y1="0"
       x2="1"
       y2="0"
       gradientUnits="userSpaceOnUse"
       gradientTransform="matrix(31.470819,0,0,-31.470819,132.13501,331.77557)"
       spreadMethod="pad"
       id="linearGradient910"><stop
         style="stop-opacity:1;stop-color:#0045e7"
         offset="0"
         id="stop906" /><stop
         style="stop-opacity:1;stop-color:#00decf"
         offset="1"
         id="stop908" /></linearGradient><linearGradient
       x1="0.22711757"
       y1="0.44999939"
       x2="0.74160779"
       y2="-0.44131935"
       gradientUnits="userSpaceOnUse"
       gradientTransform="matrix(140.31699,0,0,-140.31699,269.24621,177.27284)"
       spreadMethod="pad"
       id="linearGradient942"><stop
         style="stop-opacity:1;stop-color:#f97316"
         offset="0"
         id="stop938" /><stop
         style="stop-opacity:1;stop-color:#ef4444"
         offset="1"
         id="stop940" /></linearGradient><clipPath
       clipPathUnits="userSpaceOnUse"
       id="clipPath964"><path
         d="M 0,500 H 500 V 0 H 0 Z"
         id="path962" /></clipPath><linearGradient
       x1="0"
       y1="0"
       x2="1"
       y2="0"
       gradientUnits="userSpaceOnUse"
       gradientTransform="matrix(124.401,0,0,124.401,-94.4476,458.0916)"
       spreadMethod="pad"
       id="linearGradient972"><stop
         style="stop-opacity:1;stop-color:#0045e7"
         offset="0"
         id="stop968" /><stop
         style="stop-opacity:1;stop-color:#00decf"
         offset="1"
         id="stop970" /></linearGradient><clipPath
       clipPathUnits="userSpaceOnUse"
       id="clipPath994"><path
         d="m 286.168,318.625 c -1.673,-0.966 -2.248,-3.107 -1.281,-4.781 v 0 c 0.966,-1.674 3.107,-2.247 4.781,-1.28 v 0 c 0.094,0.054 0.188,0.108 0.282,0.163 v 0 l -3.5,6.062 c -0.094,-0.055 -0.188,-0.109 -0.282,-0.164"
         id="path992" /></clipPath><clipPath
       clipPathUnits="userSpaceOnUse"
       id="clipPath1024"><path
         d="m 348.167,426.011 c -0.548,-0.316 -0.986,-0.772 -1.282,-1.282 v 0 l -0.005,-0.009 -37.925,-65.758 c 0,0 -0.163,-0.283 -0.489,-0.849 v 0 c 1.011,-0.583 1.516,-0.874 1.516,-0.874 v 0 c 0.505,-0.292 1.01,-0.583 1.516,-0.875 v 0 c 0.505,-0.292 1.011,-0.582 1.516,-0.874 v 0 c 0,0 0.505,-0.292 1.515,-0.875 v 0 c 0.327,0.566 0.491,0.85 0.491,0.85 v 0 l 34.898,60.512 c 18.646,-32.293 37.291,-64.588 55.935,-96.882 v 0 h -80.049 c 3.444,1.981 6.887,3.962 10.332,5.943 v 0 h 53.352 0.01 c 0.59,10e-4 1.202,0.153 1.75,0.469 v 0 c 1.674,0.966 2.247,3.106 1.282,4.78 v 0 l -0.006,0.009 c -13.19,22.847 -26.381,45.693 -39.571,68.539 v 0 l -0.005,0.009 c -0.297,0.51 -0.734,0.965 -1.281,1.282 v 0 c -1.674,0.966 -3.814,0.392 -4.781,-1.282 v 0 l -0.005,-0.009 c -7.956,-13.779 -15.911,-27.559 -23.867,-41.339 v 0 l -0.005,-0.008 c -0.293,-0.512 -0.469,-1.118 -0.469,-1.75 v 0 c 0,-1.933 1.566,-3.501 3.5,-3.501 v 0 h 0.01 16.326 0.01 c 1.206,0.004 2.383,0.63 3.031,1.751 v 0 l 0.005,0.009 c 1.498,2.595 2.996,5.19 4.495,7.785 v 0 l 9,-15.589 h -24.053 -0.009 c -0.591,-0.002 -1.203,-0.153 -1.751,-0.469 v 0 l -0.009,-0.004 c -15.359,-8.868 -30.719,-17.736 -46.079,-26.604 v 0 c 0,0 -0.282,-0.164 -0.848,-0.491 v 0 c 0.583,-1.01 0.875,-1.514 0.875,-1.514 v 0 c 0.291,-0.506 0.583,-1.011 0.875,-1.516 v 0 c 0.291,-0.506 0.583,-1.011 0.875,-1.516 v 0 c 0,0 0.291,-0.506 0.875,-1.515 v 0 c 0.566,0.326 0.848,0.489 0.848,0.489 v 0 c 15.092,8.713 30.185,17.427 45.276,26.141 v 0 h 29.177 0.011 c 1.932,0 3.5,1.567 3.5,3.499 v 0 c 0,0.633 -0.177,1.238 -0.47,1.75 v 0 l -0.005,0.009 c -5.017,8.691 -10.035,17.381 -15.052,26.072 v 0 l -0.005,0.008 c -0.967,1.675 -3.107,2.248 -4.781,1.281 v 0 c -0.548,-0.316 -0.985,-0.771 -1.281,-1.281 v 0 l -0.005,-0.008 c -2.172,-3.762 -4.344,-7.524 -6.515,-11.286 v 0 h -8.264 c 5.938,10.286 11.876,20.571 17.815,30.856 v 0 c 11.173,-19.352 22.345,-38.704 33.518,-58.056 v 0 h -48.224 -0.01 c -0.63,0 -1.234,-0.176 -1.745,-0.466 v 0 l -0.009,-0.006 c -7.495,-4.311 -14.99,-8.622 -22.484,-12.933 v 0 l -0.009,-0.004 c -1.675,-0.964 -2.253,-3.104 -1.289,-4.779 v 0 c 0.645,-1.123 1.825,-1.752 3.035,-1.755 v 0 h 0.009 99.198 0.009 c 1.933,0 3.5,1.567 3.5,3.5 v 0 c 0,0.632 -0.176,1.238 -0.468,1.749 v 0 l -0.006,0.009 -61.989,107.369 -0.005,0.008 c -0.648,1.123 -1.825,1.751 -3.034,1.751 v 0 c -0.594,0 -1.196,-0.152 -1.747,-0.47"
         id="path1022" /></clipPath><clipPath
       clipPathUnits="userSpaceOnUse"
       id="clipPath1622"><path
         d="m 308.466,358.113 c -0.966,-1.674 -0.392,-3.815 1.283,-4.78 v 0 c 1.674,-0.966 3.815,-0.392 4.78,1.282 v 0 l 0.163,0.284 -6.063,3.497 c -0.054,-0.094 -0.109,-0.189 -0.163,-0.283"
         id="path1620" /></clipPath></defs><g
     id="g846"
     transform="matrix(1.3333333,0,0,-1.3333333,0,666.66667)"><g
       id="g926"
       transform="matrix(3.093921,0,0,3.093921,-833.02628,-258.47)"><g
         id="g1061"
         transform="translate(9.8991173,0.85494382)"><path
           d="m 477.19047,114.82263 v 15.88288 l -2.61986,4.25726 v 30.12835 q 0,6.54964 -4.09353,9.9882 -3.92978,3.43856 -12.93553,3.43856 -6.05842,0 -12.28058,-1.96489 -6.22216,-1.80115 -10.64316,-5.07597 l -11.78936,24.39741 q 7.85957,4.91223 18.83022,7.53208 10.97065,2.61986 21.45007,2.61986 23.08748,0 35.69554,-10.31569 12.77179,-10.31568 12.77179,-32.74819 v -48.13986 z m -25.37986,-1.63741 q -10.97065,0 -18.33899,3.76604 -7.36835,3.76605 -11.13439,9.98821 -3.76604,6.38589 -3.76604,14.08172 0,8.67827 4.42101,14.73669 4.421,6.05842 13.42676,9.1695 9.16949,3.11108 23.08748,3.11108 h 18.66647 v -17.84777 h -12.7718 q -5.89467,0 -8.67827,-1.96489 -2.61986,-1.80116 -2.61986,-5.5672 0,-3.11108 2.29238,-5.23971 2.45611,-1.96489 6.54964,-1.96489 3.76604,0 6.87712,1.96489 3.27482,2.12863 4.74849,6.54964 l 4.74849,-10.97065 q -2.12863,-9.9882 -9.00576,-14.90043 -6.87712,-4.91223 -18.50273,-4.91223 z"
           id="path964"
           style="font-weight:900;font-size:163.741px;font-family:'Montserrat Black';-inkscape-font-specification:Montserrat-Black;stroke-width:6.30947" /><path
           d="m 527.62268,114.82263 v 89.56633 H 562.827 v -27.01727 l -5.73094,7.69583 q 4.09353,10.47942 13.09928,15.71914 9.00575,5.23971 21.61381,5.23971 v -32.7482 q -2.45611,0.32748 -4.42101,0.49122 -1.80115,0.16374 -3.76604,0.16374 -8.35079,0 -13.75424,-4.42101 -5.23971,-4.25726 -5.23971,-14.90043 v -39.78906 z"
           id="path966"
           style="font-weight:900;font-size:163.741px;font-family:'Montserrat Black';-inkscape-font-specification:Montserrat-Black;stroke-width:6.30947" /><path
           d="m 633.23552,129.55932 0.81871,43.55511 30.94705,31.27453 h 43.71884 l -40.93525,-42.90014 -18.50273,-14.90043 z m -30.94704,-14.73669 v 121.49582 h 37.00546 V 114.82263 Z m 64.67769,0 -24.56115,31.11079 22.76,27.99971 46.50244,-59.1105 z"
           id="path968"
           style="font-weight:900;font-size:163.741px;font-family:'Montserrat Black';-inkscape-font-specification:Montserrat-Black;stroke-width:6.30947" /><path
           d="m 734.55324,229.79312 v -25.42463 h 30.30168 v -6.23623 h -30.30168 v -53.80747 q 0,-10.23381 2.63841,-14.31134 5.43671,-8.95459 15.83042,-8.95459 h 11.83285 v -6.23623 h -11.43309 q -10.95337,0 -18.62873,6.39613 -7.67536,6.39614 -7.67536,23.10603 v 53.80747 h -10.71353 v 6.23623 h 10.71353 v 25.42463 z"
           id="path937"
           style="font-weight:300;font-size:163.741px;font-family:'Montserrat Light';-inkscape-font-specification:Montserrat-Light;stroke-width:6.30947" /><path
           d="m 860.79691,163.27334 v -4.6372 H 792.838 q 0,-21.58695 8.39492,-30.22173 9.27439,-9.5942 27.58332,-9.5942 4.7971,0 12.71232,2.07875 7.99516,2.07874 15.83043,6.23623 v -7.75531 q -7.91522,-3.35797 -16.23019,-5.11691 -8.31497,-1.75894 -13.19202,-1.75894 -20.70748,0 -31.18115,11.19324 -11.35314,11.91279 -11.35314,34.93887 0,23.90555 10.39372,35.65844 10.63357,12.2326 29.58211,12.2326 17.58937,0 26.54395,-11.59299 8.87464,-12.15265 8.87464,-31.66085 z m -7.43551,1.59903 q 0,18.86859 -8.47487,27.50337 -7.1157,7.67536 -19.3483,7.67536 -13.35193,0 -22.38647,-7.99517 -8.31497,-7.4355 -9.99396,-27.18356 z"
           id="path939"
           style="font-weight:300;font-size:163.741px;font-family:'Montserrat Light';-inkscape-font-specification:Montserrat-Light;stroke-width:6.30947" /><path
           d="m 953.06113,200.0511 v -7.83526 q -6.63599,4.07753 -10.95338,5.51666 -7.4355,2.3186 -14.23139,2.3186 -19.3483,0 -27.74323,-9.91401 -8.39492,-9.914 -8.39492,-30.62148 0,-20.86738 8.39492,-30.78139 8.39493,-9.91401 27.74323,-9.91401 6.39613,0 12.63236,1.75894 6.31618,1.67899 12.55241,5.11691 v -7.43551 q -6.15628,-2.87826 -12.71231,-4.31739 -6.63599,-1.43913 -13.11208,-1.43913 -19.6681,0 -31.26109,10.63357 -11.593,10.71353 -11.593,36.37801 0,25.66448 11.593,36.378 11.59299,10.63357 31.26109,10.63357 6.39614,0 13.59179,-1.83888 7.19565,-1.75894 12.2326,-4.6372 z"
           id="path941"
           style="font-weight:300;font-size:163.741px;font-family:'Montserrat Light';-inkscape-font-specification:Montserrat-Light;stroke-width:6.30947" /><path
           d="m 1049.4029,168.86995 v -54.04732 h -7.3556 v 53.56761 q 0,17.26956 -5.8365,24.46521 -5.8364,7.19565 -17.6693,7.19565 -13.5918,0 -21.50697,-7.99517 -7.91521,-7.99516 -7.91521,-26.6239 v -50.6094 h -7.35555 v 124.40478 h 7.35555 V 187.8185 q 2.55845,6.87584 9.11449,12.2326 7.83529,6.47608 22.06669,6.47608 13.2719,0 21.1872,-9.51424 7.9152,-9.5942 7.9152,-28.14299 z"
           id="path943"
           style="font-weight:300;font-size:163.741px;font-family:'Montserrat Light';-inkscape-font-specification:Montserrat-Light;stroke-width:6.30947" /><path
           d="m 324.39091,231.66458 -52.79604,-91.44672 c -6.67332,-11.55744 1.66803,-26.00395 15.01467,-26.00395 v 0 h 0.0482 l 39.91759,69.13762 c 3.4043,5.89695 10.94457,7.9167 16.84269,4.51241 v 0 c 5.89812,-3.4043 7.91788,-10.94458 4.51358,-16.8427 v 0 l -32.79841,-56.80733 h 23.44309 l 20.38815,35.31461 c 3.40547,5.89694 10.94692,7.91787 16.84504,4.51357 v 0 c 5.89577,-3.40665 7.9167,-10.94575 4.51241,-16.84387 v 0 L 367.0517,114.21391 h 25.14758 c 13.34664,0 21.688,14.44651 15.01468,26.00395 v 0 l -52.7937,91.44672 c -3.33724,5.77814 -9.17655,8.66838 -15.01467,8.66838 v 0 c -5.8393,0 -11.67861,-2.89024 -15.01468,-8.66838"
           style="fill:#000000;stroke:none;stroke-width:1.17633"
           id="path944" /></g></g></g></svg>
